<svg xmlns="http://www.w3.org/2000/svg" width="747" height="1024" viewBox="0 0 747 1024" version="1.1"><path d="M 369 156.932 C 360.724 158.591, 353 164.898, 353 169.995 C 353 171.166, 351.819 174.620, 350.376 177.672 C 348.066 182.552, 347.809 184.119, 348.231 190.705 C 348.541 195.520, 348.317 198.515, 347.606 199.099 C 346.998 199.599, 344.250 201.469, 341.500 203.254 C 336.984 206.186, 336.479 206.887, 336.288 210.500 L 336.076 214.500 337.310 210.536 C 338.318 207.296, 339.589 205.952, 344.272 203.174 L 350 199.776 350 191.358 C 350 184.629, 350.502 181.748, 352.500 177 C 353.875 173.733, 355 170.372, 355 169.530 C 355 168.689, 355.419 168, 355.930 168 C 356.442 168, 357.005 166.994, 357.180 165.765 C 357.618 162.704, 364.282 159.220, 370.462 158.821 L 375.424 158.500 376.066 162.321 C 376.524 165.045, 378.138 167.628, 381.693 171.321 C 385.955 175.749, 389 181.639, 389 185.454 C 389 185.851, 387.143 185.862, 384.873 185.479 C 382.224 185.031, 380.967 185.137, 381.361 185.775 C 381.977 186.771, 390.423 188.523, 392.726 188.132 C 393.400 188.017, 395.312 188.627, 396.976 189.487 C 399.718 190.906, 400 191.509, 400 195.957 C 400 201.931, 405.184 216.762, 408.141 219.250 C 409.285 220.213, 410.913 221, 411.758 221 C 412.603 221, 415.235 222.591, 417.608 224.535 C 420.747 227.107, 422.069 229.015, 422.461 231.535 C 422.758 233.441, 423.256 236.630, 423.568 238.622 C 423.980 241.248, 425.494 243.545, 429.078 246.981 C 433.287 251.018, 434.330 252.813, 436.122 259.109 C 437.279 263.174, 438.288 269.245, 438.363 272.600 C 438.488 278.155, 438.835 279.071, 442.250 282.853 C 445.644 286.611, 446.229 287.695, 445.894 289.604 C 445.836 289.936, 447.589 292.074, 449.789 294.354 C 457.708 302.559, 459.733 310.973, 454.645 314.536 C 451.526 316.721, 451.139 316.384, 451.727 312 C 452.079 309.374, 451.875 308, 451.132 308 C 450.509 308, 450 309.336, 450 310.968 C 450 313.323, 449.080 314.615, 445.550 317.218 C 443.102 319.023, 440.630 321.797, 440.056 323.382 C 439.101 326.019, 438.691 326.219, 435.256 325.731 C 433.190 325.437, 430.712 324.880, 429.750 324.492 C 428.773 324.098, 428 324.232, 428 324.795 C 428 326.026, 433.388 328, 436.746 328 C 438.177 328, 441.080 326.339, 443.737 324 C 448.153 320.113, 451.275 319.018, 452.464 320.941 C 452.784 321.459, 451.027 324.271, 448.560 327.191 C 446.093 330.111, 442.722 334.114, 441.069 336.087 C 438.661 338.959, 436.565 340.109, 430.540 341.859 C 425.295 343.383, 422.553 344.753, 421.486 346.381 C 419.346 349.647, 413.735 351.762, 405.266 352.493 C 398.306 353.094, 397.857 352.998, 393.414 349.941 C 386.006 344.844, 383.339 336.912, 386.494 329.359 C 387.951 325.873, 387.902 325.641, 384.534 320.142 C 380.910 314.224, 379.410 309.079, 378.473 299.350 C 378.163 296.133, 377.509 293.360, 377.019 293.188 C 376.530 293.017, 374.705 291.633, 372.963 290.112 C 370.143 287.650, 369.301 287.423, 365.258 288.037 C 359.412 288.924, 354.843 287.856, 349.940 284.458 C 346.802 282.284, 345.254 281.842, 342.255 282.266 C 337.047 283.003, 331.957 285.185, 334.198 285.721 C 335.131 285.944, 336.789 285.648, 337.882 285.063 C 340.391 283.721, 345.286 283.686, 346.602 285.002 C 347.214 285.614, 347.325 288.248, 346.887 291.752 C 346.492 294.914, 346.113 298.625, 346.044 300 C 345.921 302.484, 345.910 302.481, 344.335 299.500 C 342.057 295.190, 339.960 293.028, 336.520 291.445 C 334.859 290.681, 332.263 289.055, 330.750 287.833 C 328.084 285.677, 327.766 285.650, 320.250 286.941 C 315.988 287.672, 309 288.410, 304.721 288.580 C 298.058 288.845, 296.235 288.533, 292.002 286.407 C 286.846 283.817, 284 280.765, 284 277.826 C 284 276.071, 289.597 270.022, 293.804 267.229 C 295.072 266.387, 297.511 265.739, 299.224 265.787 C 304.020 265.924, 307.760 263.414, 311.520 257.537 C 313.408 254.585, 316.279 251.225, 317.900 250.071 C 319.663 248.816, 321.118 246.673, 321.521 244.736 C 321.892 242.956, 323.542 237.387, 325.188 232.360 C 328.107 223.443, 328.299 223.155, 333.059 220.564 C 335.743 219.104, 338.205 217.477, 338.532 216.949 C 338.858 216.421, 341.011 216.060, 343.317 216.147 C 347.193 216.294, 354.832 213.498, 353.686 212.353 C 353.411 212.078, 351.739 212.601, 349.971 213.515 C 347.907 214.582, 345.621 214.964, 343.582 214.581 C 341.211 214.137, 339.628 214.557, 337.328 216.243 C 335.634 217.484, 330.853 220.042, 326.704 221.926 C 318.631 225.592, 317 227.539, 317 233.504 C 317 236.226, 316.279 237.478, 313.431 239.707 C 308.673 243.430, 306.595 247.375, 308.005 250.009 C 309.538 252.874, 310.260 252.459, 309.529 249.132 C 308.897 246.256, 310.697 243.769, 316.352 239.708 C 317.520 238.869, 318.398 236.652, 318.731 233.696 C 319.089 230.518, 320.063 228.209, 321.766 226.507 C 325.022 223.251, 326.103 223.331, 325.043 226.750 C 318.898 246.565, 318.642 247.171, 315.366 249.670 C 313.558 251.049, 311.790 253.087, 311.437 254.199 C 311.084 255.311, 309.214 257.971, 307.281 260.111 C 304.399 263.300, 303.099 264, 300.055 264 C 297.619 264, 294.815 265.012, 291.899 266.944 C 280.133 274.737, 279.573 281.677, 290.269 287.136 C 293.580 288.826, 293.906 289.307, 292.954 291.086 C 292.299 292.310, 292.132 295.207, 292.532 298.406 C 293.314 304.667, 290.902 310.509, 286.134 313.905 C 281.302 317.346, 281.141 323.958, 285.853 325.453 C 286.873 325.777, 288.561 327.648, 289.604 329.611 C 291.906 333.945, 295.556 336, 300.950 336 C 303.178 336, 305 336.439, 305 336.976 C 305 337.512, 303.447 339.365, 301.549 341.092 C 299.188 343.240, 298.128 345.063, 298.191 346.866 C 298.243 348.315, 297.487 352.511, 296.513 356.192 C 294.542 363.636, 294.976 366.501, 297.955 365.722 C 299.097 365.423, 300.586 365.991, 301.598 367.108 C 302.892 368.538, 304.688 369, 308.955 369 C 312.060 369, 315.140 368.460, 315.800 367.800 C 317.794 365.806, 317.168 363.014, 314.500 362 C 311.457 360.843, 311.446 360.669, 314.188 356.960 C 316.008 354.499, 317.083 354, 320.569 354 C 323.978 354, 325.361 353.392, 327.960 350.750 C 329.719 348.963, 331.762 346.067, 332.500 344.316 C 333.978 340.812, 338.446 338, 342.538 338 C 345.030 338, 345.141 338.208, 344.555 341.750 C 342.914 351.660, 341.857 362.610, 341.441 374 C 341.190 380.875, 340.517 389.425, 339.945 393 C 338.350 402.971, 338.276 431.393, 339.826 439.050 C 342.156 450.565, 340.011 489.491, 336.704 495.700 C 334.438 499.955, 334.586 504.529, 337.166 510 C 338.636 513.118, 339.535 517.725, 340.093 525 C 340.535 530.775, 341.033 536.400, 341.199 537.500 C 341.457 539.213, 340.782 539.584, 336.500 540.082 C 326.905 541.200, 306.834 547.912, 301.949 551.637 C 293.641 557.972, 286.923 570.559, 283.994 585.276 C 282.352 593.525, 280.333 616.092, 281.626 611.750 C 282.402 609.143, 283.872 609.633, 284.632 612.750 C 285 614.263, 286.381 617.883, 287.701 620.795 C 295.496 638, 297.347 644.228, 297.425 653.500 C 297.496 662.056, 297.298 662.920, 293.406 671 C 291.154 675.675, 286.777 683.214, 283.680 687.754 C 280.582 692.293, 277.329 697.398, 276.450 699.097 C 275.571 700.796, 274.650 701.984, 274.404 701.737 C 273.439 700.772, 280.517 682.928, 286.109 672.227 L 292 660.954 292 651.420 C 292 640.691, 290.649 633.866, 287.684 629.615 C 286.577 628.028, 285.090 625.103, 284.380 623.115 C 283.480 620.597, 283.074 620.152, 283.044 621.648 C 283.020 622.830, 284.368 626.397, 286.039 629.575 C 287.711 632.753, 288.871 635.893, 288.617 636.554 C 288.364 637.215, 288.568 638.168, 289.072 638.672 C 290.611 640.211, 291.274 651.179, 290.179 657 C 289.568 660.248, 287.034 666.286, 283.991 671.744 C 278.125 682.266, 272.025 698.749, 272.010 704.120 C 272.005 706.111, 271.157 710.386, 270.127 713.620 C 267.021 723.373, 265.667 733.759, 265.582 748.500 C 265.504 761.831, 265.658 762.962, 268.802 772.158 C 272.134 781.906, 277.030 790.117, 283.850 797.397 C 285.857 799.540, 286.938 800.976, 286.250 800.588 C 285.561 800.199, 285 800.405, 285 801.048 C 285 801.701, 285.697 801.947, 286.584 801.606 C 287.575 801.226, 290.286 802.642, 293.834 805.395 C 300.946 810.913, 305.082 812.946, 317 816.779 C 327.882 820.280, 332.546 821.349, 346.500 823.543 C 376.660 828.284, 395.155 827.543, 419.146 820.633 C 456.295 809.934, 479.193 791.490, 485.449 767.228 C 490.757 746.641, 487.514 728.727, 474.998 709.500 C 472.849 706.200, 469.061 697.777, 466.580 690.781 C 463.957 683.388, 459.564 673.759, 456.087 667.781 C 445.693 649.916, 444.090 639.319, 448.948 620.590 C 451.397 611.151, 451.696 595.205, 449.575 587.236 C 446.721 576.515, 439.410 568.024, 423.710 557.197 C 411.781 548.971, 401.143 544.069, 387.348 540.441 C 384.850 539.784, 381.577 515.126, 380.319 487.500 C 379.181 462.490, 379.750 456.148, 384.101 445.333 C 385.271 442.427, 385.141 441.812, 382.528 437.863 C 379.333 433.034, 378.499 427.510, 377.113 402 C 376.285 386.748, 377.264 359.131, 378.860 352.726 C 379.377 350.650, 379.587 348.136, 379.326 347.139 C 378.741 344.903, 384.116 340.848, 384.829 342.988 C 385.679 345.536, 392.110 351.824, 395.521 353.443 C 397.981 354.611, 400.090 354.881, 402.748 354.369 C 404.811 353.972, 407.400 353.716, 408.500 353.800 C 412.242 354.085, 419.811 350.937, 421.469 348.407 C 423.254 345.683, 426.466 344.089, 435.323 341.533 C 440.315 340.092, 441.599 339.197, 444.323 335.262 C 446.070 332.737, 449.188 328.693, 451.250 326.275 C 453.313 323.857, 455 321.511, 455 321.062 C 455 319.194, 451.922 317.803, 449.265 318.470 C 447.747 318.851, 446.788 318.879, 447.134 318.533 C 447.480 318.186, 449.954 317.362, 452.632 316.701 C 457.130 315.591, 457.601 315.180, 458.835 311.280 C 460.068 307.384, 459.992 306.703, 457.839 302.393 C 456.557 299.825, 453.594 295.783, 451.254 293.409 C 448.914 291.036, 447 288.340, 447 287.418 C 447 286.497, 445.404 283.976, 443.453 281.816 C 440.300 278.326, 439.938 277.366, 440.192 273.172 C 440.350 270.576, 439.693 265.989, 438.734 262.977 C 437.774 259.964, 436.551 255.691, 436.017 253.479 C 435.324 250.607, 434.161 248.935, 431.947 247.628 C 427.690 245.113, 425.222 240.662, 424.427 234.066 C 424.058 231.005, 423.474 227.970, 423.128 227.322 C 422.183 225.550, 414.218 220, 412.619 220 C 409.865 220, 407.237 216.379, 404.635 209 C 403.180 204.875, 401.993 199.399, 401.995 196.832 C 402.001 191.328, 401.264 189, 399.515 189 C 398.817 189, 397.685 188.325, 397 187.500 C 396.315 186.675, 394.887 186, 393.827 186 C 391.874 186, 389 180.863, 389 177.373 C 389 176.442, 386.477 173.036, 383.393 169.803 C 379.255 165.464, 377.926 163.391, 378.319 161.888 C 378.645 160.642, 378.104 159.104, 376.926 157.926 C 374.882 155.882, 374.483 155.832, 369 156.932 M 364.250 169.745 C 362.462 170.635, 361 171.743, 361 172.207 C 361 172.671, 362.460 172.297, 364.244 171.374 C 366.027 170.452, 368.615 169.354, 369.994 168.934 L 372.500 168.172 370 168.150 C 368.625 168.138, 366.038 168.856, 364.250 169.745 M 392.488 221.980 C 392.846 222.560, 395.539 222.704, 399.089 222.333 C 404.669 221.750, 405.281 221.895, 407.927 224.430 C 411.789 228.130, 412.015 235.893, 408.401 240.683 C 405.860 244.052, 405.347 246, 407 246 C 407.550 246, 408 245.380, 408 244.622 C 408 243.865, 408.705 242.660, 409.566 241.945 C 414.560 237.800, 414.565 227.603, 409.574 223.310 C 407.284 221.341, 405.782 221, 399.385 221 C 394.741 221, 392.113 221.373, 392.488 221.980 M 333.607 249.582 C 333.273 250.452, 333 251.990, 333 252.999 C 333 254.119, 331.558 255.550, 329.304 256.668 C 327.272 257.675, 325.454 259.002, 325.266 259.616 C 325.077 260.230, 327.190 259.610, 329.961 258.239 C 332.897 256.786, 335.006 255.068, 335.014 254.123 C 335.021 253.230, 335.299 251.488, 335.630 250.250 C 336.310 247.712, 334.548 247.130, 333.607 249.582 M 430.137 271.037 C 429.018 274.247, 430.101 279, 431.950 279 C 432.604 279, 432.621 278.134, 432 276.500 C 431.394 274.906, 431.403 273.070, 432.025 271.435 C 433.224 268.280, 433.230 268, 432.098 268 C 431.602 268, 430.719 269.367, 430.137 271.037 M 374.388 279.876 C 375.322 280.908, 376.352 283.394, 376.678 285.400 C 377.381 289.736, 379 291.218, 379 287.527 C 379 283.526, 376.330 278, 374.396 278 C 372.791 278, 372.790 278.111, 374.388 279.876 M 321 288.162 C 319.625 288.731, 313.629 289.443, 307.676 289.744 C 294.501 290.409, 293.607 291.004, 294.541 298.478 C 295.314 304.671, 293.288 309.470, 287.588 314.946 C 285.614 316.842, 284 319.151, 284 320.077 C 284 321.004, 285.575 322.964, 287.500 324.432 C 289.425 325.900, 291 327.721, 291 328.478 C 291 331.048, 296.240 334.223, 299.586 333.680 C 301.283 333.404, 303.308 333.583, 304.086 334.077 C 305.102 334.723, 306.245 334.075, 308.149 331.773 C 310.542 328.881, 311.329 328.571, 316.294 328.571 C 319.831 328.571, 323.075 329.264, 325.397 330.514 L 329.004 332.457 332.229 329.233 L 335.453 326.009 333.318 323.873 L 331.182 321.738 329.135 325.619 C 326.821 330.007, 326.409 328.704, 328.210 322.693 C 328.945 320.240, 331.053 317.148, 333.578 314.821 C 340.277 308.646, 343.304 303.660, 342.520 300.089 C 341.887 297.208, 336.962 292, 334.870 292 C 334.333 292, 332.238 290.875, 330.215 289.500 C 326.221 286.786, 324.815 286.582, 321 288.162 M 348.474 291.326 C 348.117 293.705, 347.482 298.992, 347.063 303.076 C 346.397 309.572, 346.204 310.091, 345.522 307.229 L 344.742 303.958 341.783 307.980 C 339.237 311.443, 338.919 312.559, 339.499 315.996 C 339.870 318.193, 340.635 320.275, 341.199 320.623 C 342.511 321.434, 343.965 319.151, 343.985 316.250 C 343.993 315.012, 344.508 314, 345.128 314 C 346.427 314, 345.477 321.920, 344 323.399 C 342.568 324.833, 338.138 321.307, 337.277 318.046 C 336.504 315.118, 336.488 315.112, 334.099 316.920 L 331.697 318.737 334.349 322.213 C 335.807 324.125, 337 326.121, 337 326.648 C 337 327.176, 335.424 329.135, 333.498 331.002 C 331.159 333.269, 330.329 334.729, 330.998 335.398 C 331.549 335.949, 332 337.154, 332 338.075 C 332 339.595, 332.361 339.570, 335.928 337.806 C 338.150 336.706, 341.298 336.001, 343.178 336.181 C 346.260 336.477, 346.496 336.752, 346.442 340 C 346.410 341.925, 345.822 347.550, 345.136 352.500 C 344.450 357.450, 343.466 368.250, 342.949 376.500 C 342.433 384.750, 341.420 398.327, 340.700 406.671 C 339.309 422.782, 339.910 435.981, 342.157 438.690 C 344.992 442.106, 342.427 487.985, 338.964 495.815 C 336.437 501.526, 336.487 502.842, 339.500 510 C 341.322 514.328, 342.006 517.779, 342.024 522.720 C 342.037 526.449, 342.431 531.151, 342.900 533.170 C 343.370 535.188, 343.531 538.001, 343.260 539.420 C 342.823 541.704, 342.287 542, 338.578 542 C 336.274 542, 331.264 543.092, 327.445 544.426 L 320.500 546.851 325.816 546.926 C 328.739 546.967, 331.889 546.611, 332.816 546.136 C 335.821 544.594, 343 544.069, 343 545.392 C 343 546.863, 331.241 549, 323.141 549 C 315.535 549, 307.294 553.046, 300.500 560.116 L 295.500 565.319 301.500 560.507 C 310.261 553.480, 315.742 551.324, 328 550.081 C 333.775 549.495, 339.625 548.757, 341 548.439 C 343.170 547.939, 343.263 548.013, 341.706 549.005 C 340.720 549.634, 334.546 550.775, 327.988 551.541 C 313.658 553.215, 308.240 555.600, 299.964 563.876 C 295.820 568.020, 293.836 570.979, 292.498 575.010 C 291.495 578.029, 289.623 582.480, 288.338 584.899 C 283.938 593.179, 285.457 607.331, 292.336 622.139 C 294.217 626.188, 296.090 630.625, 296.498 632 C 296.907 633.375, 298.312 637.074, 299.621 640.220 C 304.304 651.479, 302.136 667.571, 294.327 679.500 C 286.401 691.609, 277.113 709.191, 274.254 717.500 C 271.585 725.254, 271.501 726.146, 271.533 746.500 C 271.570 770.627, 272.370 774.163, 280.487 786.068 C 286.045 794.222, 290.306 797.685, 302.471 803.935 C 313.570 809.637, 323.134 812.942, 338.500 816.384 C 354.843 820.046, 365.310 820.856, 385 819.984 C 408.095 818.961, 410.267 818.605, 425.588 813.338 C 438.644 808.849, 446.837 804.478, 460.520 794.701 C 469.711 788.134, 469.835 789.401, 460.668 796.214 C 450.009 804.135, 442.652 808.482, 433 812.558 C 428.325 814.532, 425.912 815.911, 427.639 815.621 C 432.190 814.858, 453.304 804.366, 459.340 799.870 C 465.446 795.321, 475.951 783.344, 479.399 777 C 483.245 769.924, 485.281 757.711, 484.789 744.676 C 484.497 736.943, 483.845 732.422, 482.673 730 C 481.491 727.558, 481.153 727.256, 481.554 729 C 481.870 730.375, 482.302 734.650, 482.514 738.500 L 482.899 745.500 482.007 739.500 C 480.001 725.987, 475.486 717.068, 460.495 697 C 453.831 688.079, 444.361 671.886, 442.657 666.500 C 440.254 658.899, 438.675 644.373, 439.365 636.207 C 439.705 632.188, 440.964 625.210, 442.162 620.700 C 444.807 610.748, 445.005 593.969, 442.576 585.615 C 440.501 578.474, 434.356 571.036, 426.364 565.989 C 415.738 559.278, 400.620 552.317, 392.525 550.408 C 385.065 548.650, 385 548.606, 385 545.382 C 385 543.594, 384.554 540.956, 384.008 539.521 C 382.155 534.647, 379.953 514.577, 378.477 489.112 C 376.889 461.704, 377.292 455.114, 381.086 446.539 C 383.157 441.856, 383.159 441.797, 381.229 439.658 C 377.285 435.284, 375.958 428.413, 375.212 408.500 C 374.522 390.089, 375.166 362.390, 376.551 350.864 C 377.145 345.921, 376.966 344.966, 375.092 343.092 C 373.241 341.241, 373.167 340.873, 374.545 340.345 C 375.419 340.009, 376.644 340.244, 377.267 340.867 C 378.903 342.503, 381.687 342.259, 382.393 340.418 C 383.600 337.273, 382.934 335.998, 379.250 334.402 C 377.188 333.508, 376.038 332.573, 376.695 332.324 C 377.352 332.074, 378.853 332.386, 380.030 333.016 C 382.551 334.365, 382.379 334.493, 384.303 329.849 C 385.658 326.577, 385.654 325.902, 384.266 323.349 C 383.414 321.782, 381.679 318.475, 380.411 316 L 378.105 311.500 377.912 320.500 C 377.730 328.962, 377.676 329.171, 377.006 324 C 376.615 320.975, 376.513 315.301, 376.781 311.392 C 377.103 306.678, 376.885 304.047, 376.131 303.581 C 375.424 303.144, 375.222 301.465, 375.595 299.129 C 376.135 295.756, 375.845 295.071, 372.719 292.327 C 369.705 289.680, 368.730 289.358, 365.372 289.900 L 361.500 290.524 360.918 296.512 C 360.420 301.637, 360.297 301.923, 360.062 298.500 C 359.911 296.300, 359.723 293.669, 359.644 292.654 C 359.547 291.415, 357.857 290.183, 354.500 288.905 C 351.750 287.858, 349.415 287.001, 349.311 287.001 C 349.207 287, 348.831 288.947, 348.474 291.326 M 438 289.623 C 438 290.135, 438.706 291.564, 439.570 292.796 C 441.019 294.865, 440.981 295.295, 439.070 298.387 C 436.813 302.038, 436.439 304, 438 304 C 438.550 304, 439 303.386, 439 302.635 C 439 301.884, 439.931 300.086, 441.069 298.640 C 442.311 297.060, 442.900 295.261, 442.543 294.137 C 441.874 292.028, 438 288.179, 438 289.623 M 385.820 295.578 C 388.538 297.904, 390 299.982, 390 301.519 C 390 303.825, 391.224 305.443, 392.217 304.449 C 394.356 302.310, 386.960 292, 383.287 292 C 382.230 292, 383.137 293.282, 385.820 295.578 M 298.524 302.524 C 296.899 306.978, 294.974 310.479, 293.804 311.105 C 292.718 311.686, 292.078 312.412, 292.383 312.716 C 293.130 313.463, 298 310.212, 298 308.966 C 298 308.423, 298.864 306.071, 299.919 303.739 C 302.544 297.942, 303.312 295, 302.201 295 C 301.688 295, 300.033 298.386, 298.524 302.524 M 368 315.876 C 368 319.173, 368.463 323.088, 369.029 324.576 C 369.805 326.618, 369.673 328.291, 368.491 331.391 C 367.303 334.505, 367.151 336.469, 367.861 339.500 L 368.799 343.500 368.900 338.700 C 368.955 336.061, 369.701 332.544, 370.558 330.887 C 371.980 328.137, 371.969 327.485, 370.428 323.451 C 369.298 320.491, 368.949 317.723, 369.372 315.075 C 369.737 312.795, 369.580 310.858, 369.002 310.501 C 368.375 310.114, 368 312.126, 368 315.876 M 393.458 319.049 C 391.446 322.264, 389 327.491, 389 328.575 C 389 329.209, 390.026 330.801, 391.279 332.114 C 392.532 333.426, 394.789 336.413, 396.293 338.750 C 397.798 341.087, 399.472 343, 400.014 343 C 401.644 343, 401.193 342.066, 396.707 336.156 C 390.612 328.128, 390.717 328.475, 393.021 323.960 C 395.042 319.997, 395.404 315.941, 393.458 319.049 M 310.635 332.073 C 309.186 333.212, 308 334.772, 308 335.539 C 308 336.306, 306.349 338.584, 304.331 340.602 C 302.313 342.620, 300.540 345.448, 300.391 346.885 C 300.241 348.323, 299.221 352.538, 298.123 356.250 C 297.025 359.962, 296.211 363.034, 296.313 363.077 C 296.416 363.119, 297.276 363.302, 298.225 363.484 C 299.174 363.667, 301.147 364.757, 302.610 365.908 C 305.285 368.012, 308.581 368.487, 312.750 367.370 C 315.575 366.613, 315.673 364.348, 312.919 363.474 C 311.052 362.882, 310.907 362.309, 311.513 357.907 C 312.376 351.630, 310.060 351.074, 307.732 357 C 306.868 359.200, 305.637 361, 304.997 361 C 304.357 361, 303.999 360.663, 304.201 360.250 C 304.404 359.837, 305.390 357.587, 306.393 355.250 C 307.557 352.539, 308.858 351, 309.986 351 C 310.959 351, 312.315 350.325, 313 349.500 C 313.685 348.675, 315.652 348.041, 317.372 348.090 L 320.500 348.180 317.250 349.119 C 315.438 349.642, 314 350.723, 314 351.563 C 314 353.966, 323.867 352.378, 326.871 349.492 C 330.289 346.206, 330.737 338.419, 327.695 335.161 C 322.651 329.759, 315.274 328.423, 310.635 332.073 M 351 354.290 C 351 356.715, 350.775 362.254, 350.500 366.599 C 350.113 372.715, 350.227 373.822, 351.005 371.500 C 352.639 366.625, 353.465 351.405, 352.139 350.586 C 351.353 350.100, 351 351.246, 351 354.290 M 363.659 365.750 C 363.304 372.212, 362.729 381.775, 362.381 387 C 361.949 393.487, 362.073 396.183, 362.774 395.500 C 363.770 394.529, 365.718 354, 364.769 354 C 364.514 354, 364.015 359.288, 363.659 365.750 M 344.726 383.683 C 343.663 385.515, 342.876 403, 343.856 403 C 344.441 403, 344.996 398.914, 345.181 393.250 C 345.517 382.994, 345.487 382.373, 344.726 383.683 M 351.102 419.500 C 350.962 427.142, 350.566 429.104, 348.474 432.500 C 345.559 437.232, 345.413 439.174, 347.705 442.673 C 349.089 444.786, 349.362 447.270, 349.157 455.887 C 348.988 462.955, 349.458 469.006, 350.562 474 C 351.832 479.744, 352.288 487.938, 352.511 509 C 352.671 524.125, 353.110 537.693, 353.485 539.151 C 353.860 540.609, 353.693 545.109, 353.114 549.151 C 352.535 553.193, 351.963 565.050, 351.842 575.500 C 351.614 595.313, 351.089 599.375, 348.423 601.953 C 346.957 603.370, 346.870 602.363, 347.396 590 C 348.679 559.823, 349.165 537.537, 348.527 538.158 C 348.155 538.520, 347.652 546.845, 347.409 556.658 C 347.166 566.471, 346.516 583.725, 345.966 595 C 345.416 606.275, 344.755 626.895, 344.497 640.823 C 344.239 654.751, 343.765 666.571, 343.444 667.091 C 343.123 667.611, 343.421 676.839, 344.108 687.599 C 345.471 708.982, 345.477 708.952, 339.872 708.985 C 338.427 708.993, 336.669 709.693, 335.966 710.541 C 334.892 711.835, 335.176 712.597, 337.736 715.291 C 339.413 717.056, 341.708 720.345, 342.836 722.600 C 344.867 726.660, 344.954 726.707, 351.582 727.325 C 355.263 727.669, 359.451 728.721, 360.888 729.663 C 366.594 733.405, 368.310 733.987, 369.861 732.709 C 371.125 731.666, 371.237 732.120, 370.676 736 C 370.037 740.411, 370.054 740.446, 371.523 737.790 C 372.502 736.021, 375.609 733.853, 380.482 731.540 C 384.586 729.593, 388.427 728, 389.019 728 C 389.611 728, 391.199 726.809, 392.548 725.354 C 394.711 723.020, 395.008 722.931, 395.070 724.604 C 395.109 725.647, 395.793 724.720, 396.589 722.544 C 397.386 720.369, 398.929 717.640, 400.019 716.480 C 401.108 715.320, 402 714.142, 402 713.863 C 402 713.583, 399.098 713.387, 395.550 713.427 C 392.003 713.467, 388.664 713.050, 388.131 712.500 C 387.160 711.499, 384.515 650.594, 385.381 649.192 C 385.634 648.784, 385.516 644.677, 385.120 640.067 C 384.422 631.944, 384.481 631.597, 387.028 628.808 C 395.108 619.961, 394.569 600.103, 386.116 595.252 L 383.157 593.553 382.765 565.027 C 382.404 538.707, 382.205 536.043, 380.187 530.593 C 378.984 527.345, 377.970 523.745, 377.932 522.593 L 377.865 520.500 376.852 522.588 C 376.071 524.198, 376.430 526.082, 378.419 530.808 C 380.983 536.898, 381 537.125, 381 564.470 L 381 592 378.555 592 L 376.110 592 376.190 573.250 C 376.234 562.938, 375.786 550.225, 375.194 545 L 374.118 535.500 374.806 548 C 375.560 561.689, 375.390 582.625, 374.484 587.750 C 374.019 590.378, 373.440 591, 371.455 591 C 369.065 591, 369 590.800, 369 583.435 C 369 579.274, 369.659 567.461, 370.465 557.185 C 371.474 544.319, 371.652 536.164, 371.037 531 L 370.145 523.500 370.415 531 C 370.564 535.125, 370.275 543.225, 369.774 549 C 369.273 554.775, 368.556 566.470, 368.181 574.989 L 367.500 590.478 364.674 591.830 C 363.120 592.574, 361.582 592.915, 361.256 592.589 C 360.930 592.264, 361.456 580.185, 362.425 565.749 C 364.773 530.746, 364.764 530.407, 361.376 526.870 L 358.628 524.003 360.383 520.324 C 361.919 517.101, 362.108 513.830, 361.906 493.931 C 361.685 472.224, 361.770 471.055, 363.837 467.551 C 366.217 463.518, 366.549 459.874, 364.954 455.298 C 364.233 453.230, 364.226 450.328, 364.929 445.958 C 365.970 439.498, 365.730 437.870, 363.995 439.605 C 362.738 440.862, 362.359 454.375, 363.442 459.299 C 364.123 462.396, 363.825 464.058, 361.824 468.299 C 359.388 473.463, 359.375 473.644, 360.048 494 C 360.714 514.195, 360.689 514.572, 358.360 519.347 L 355.995 524.193 358.920 526.926 C 362.024 529.825, 363.688 535.444, 362.574 539.262 C 362.214 540.493, 361.496 549.375, 360.978 559 C 359.112 593.665, 359.153 593.375, 355.720 595.346 L 352.698 597.080 353.470 574.290 C 354.472 544.745, 354.689 514.177, 353.954 506.135 C 353.634 502.635, 353.756 496.905, 354.226 493.402 C 354.872 488.576, 354.672 485.153, 353.397 479.267 C 352.473 474.995, 351.442 465.108, 351.108 457.296 C 350.710 447.999, 350.068 442.661, 349.250 441.846 C 347.391 439.993, 347.718 437.279, 350.484 431.600 C 352.788 426.869, 352.906 425.921, 352.117 418.500 L 351.266 410.500 351.102 419.500 M 367.742 478.219 C 367.450 480.024, 367.601 485.100, 368.077 489.500 C 368.553 493.900, 369.241 501.100, 369.605 505.500 C 369.970 509.900, 370.644 514.175, 371.104 515 C 372.469 517.451, 372.148 507.342, 370.513 496.406 C 369.695 490.936, 369.079 484.091, 369.144 481.195 C 369.282 475.091, 368.511 473.456, 367.742 478.219 M 346.546 488.328 C 346.907 489.767, 346.152 492.795, 344.565 496.264 C 341.485 502.998, 341.438 503.978, 343.959 508.919 C 346.487 513.874, 347.844 522.794, 347.320 531 C 346.998 536.037, 347.154 537.101, 348.014 535.729 C 348.624 534.755, 349.545 534.219, 350.061 534.538 C 350.959 535.093, 351.509 531.751, 351.221 527.500 C 351.146 526.400, 350.861 519.033, 350.588 511.129 C 350.315 503.225, 349.846 496.512, 349.545 496.212 C 349.245 495.912, 348.970 500.354, 348.933 506.083 C 348.870 515.953, 348.800 516.290, 347.608 512.500 C 346.915 510.300, 345.778 507.438, 345.081 506.140 C 344.025 504.176, 344.093 503.044, 345.489 499.390 C 346.411 496.976, 347.578 495, 348.083 495 C 348.587 495, 349 492.975, 349 490.500 C 349 487.142, 348.615 486, 347.481 486 C 346.390 486, 346.127 486.656, 346.546 488.328 M 374.172 510.250 C 374.189 512.038, 373.958 517.550, 373.659 522.500 L 373.116 531.500 373.987 523.318 C 374.465 518.818, 375.355 514.205, 375.964 513.068 C 376.755 511.589, 376.766 510.430, 376 509 C 374.516 506.226, 374.137 506.485, 374.172 510.250 M 386.500 542.999 C 385.707 544.284, 387.042 544.827, 395.139 546.516 C 399.188 547.361, 403.400 548.281, 404.500 548.562 C 405.887 548.916, 405.701 548.615, 403.894 547.580 C 400.098 545.405, 387.125 541.989, 386.500 542.999 M 306.500 550.903 C 301.191 553.966, 298.401 556.638, 295.435 561.500 C 294.253 563.438, 295.145 562.791, 297.957 559.672 C 300.350 557.016, 304.714 553.486, 307.654 551.826 C 310.594 550.167, 313 548.627, 313 548.405 C 313 547.492, 311.241 548.168, 306.500 550.903 M 412.500 556.226 C 440.847 571.285, 446.146 578.460, 446.301 602 C 446.352 609.702, 445.790 614.765, 444.192 621 C 442.994 625.675, 442.045 631.750, 442.083 634.500 C 442.145 638.965, 442.411 638.323, 444.570 628.500 C 452.438 592.696, 449.332 579.192, 429.868 564.560 C 423.854 560.039, 409.818 552.677, 405 551.516 C 403.625 551.185, 407 553.304, 412.500 556.226 M 290.047 573.750 C 288.132 577.884, 286.030 584, 286.524 584 C 287.224 584, 290.656 576.751, 291.377 573.750 C 291.741 572.237, 291.877 571, 291.680 571 C 291.482 571, 290.748 572.237, 290.047 573.750 M 369.860 596.750 C 369.783 597.163, 369.670 604.812, 369.610 613.749 C 369.500 629.966, 369.505 629.998, 371.750 629.999 C 373.995 630, 374 629.963, 374 613 C 374 596.667, 373.922 596, 372 596 C 370.900 596, 369.937 596.337, 369.860 596.750 M 361.250 597.662 C 360.329 598.034, 360 602.079, 360 613.048 C 360 626.738, 360.155 628.013, 361.934 628.965 C 362.998 629.534, 364.798 630, 365.934 630 C 367.889 630, 368 629.443, 368 619.647 C 368 613.952, 367.711 606.527, 367.358 603.147 C 366.791 597.729, 366.465 597.009, 364.608 597.079 C 363.448 597.122, 361.938 597.385, 361.250 597.662 M 375.604 612.521 C 375.661 621.057, 375.941 628.274, 376.225 628.558 C 376.509 628.842, 377.925 628.536, 379.371 627.877 L 382 626.679 382 613.039 C 382 598.762, 381.511 597, 377.550 597 C 375.567 597, 375.503 597.506, 375.604 612.521 M 383.109 605.528 C 383.168 609.362, 383.533 615.200, 383.919 618.500 C 384.614 624.450, 384.631 624.475, 385.884 621.500 C 389.327 613.326, 388.985 604.540, 385.071 600.627 L 383 598.556 383.109 605.528 M 354.441 601.418 C 352.791 602.623, 352.449 604.326, 352.161 612.775 C 351.826 622.594, 351.855 622.740, 354.563 624.871 C 356.071 626.057, 357.517 626.817, 357.775 626.558 C 358.033 626.300, 358.378 620.219, 358.541 613.044 C 358.854 599.290, 358.547 598.419, 354.441 601.418 M 389.994 604.315 C 392.105 610.224, 390.706 618.207, 386.463 624.459 C 384.320 627.618, 384.213 628.106, 385.727 627.814 C 390.054 626.982, 393.819 607.727, 390.494 603.441 C 389.090 601.631, 389.056 601.689, 389.994 604.315 M 291.128 624 C 291.107 624.825, 292.175 627.525, 293.500 630 C 294.825 632.475, 295.902 634.050, 295.893 633.500 C 295.866 631.782, 291.169 622.417, 291.128 624 M 346.509 624.973 C 346.129 626.169, 345.787 644.869, 345.749 666.529 C 345.695 697.819, 345.953 706.238, 347.005 707.506 C 348.622 709.454, 353.635 709.130, 353.202 707.105 C 352.010 701.532, 349.582 662.733, 349.352 645.586 C 349.091 626.092, 348.201 619.641, 346.509 624.973 M 352 626.348 C 352 627.898, 353.561 629.355, 356.250 630.313 C 358.976 631.285, 358.311 629.606, 355 627.158 C 352.805 625.535, 352 625.318, 352 626.348 M 350.671 639.250 C 350.096 647.761, 351.786 679.371, 353.912 699.873 C 354.777 708.214, 355.847 710.288, 359 709.734 C 360.239 709.517, 360.438 707.828, 360.141 700.013 C 359.943 694.811, 359.381 689.501, 358.891 688.213 C 358.401 686.924, 358 673.986, 358 659.461 L 358 633.051 355.050 631.526 C 353.427 630.687, 351.919 630, 351.698 630 C 351.477 630, 351.015 634.163, 350.671 639.250 M 378.150 633.072 L 375.799 634.010 376.150 671.455 C 376.367 694.635, 376.881 709.268, 377.500 709.864 C 378.050 710.394, 379.850 710.979, 381.500 711.164 L 384.500 711.500 384.204 694 C 383.589 657.706, 382.490 632.660, 381.500 632.398 C 380.950 632.253, 379.442 632.556, 378.150 633.072 M 359.663 658.067 C 359.273 672.338, 359.393 683.837, 359.959 686.317 C 360.484 688.618, 361.199 694.888, 361.550 700.250 C 362.167 709.706, 362.259 710, 364.593 710 C 367.484 710, 367.348 712.290, 367.149 667 L 367.011 635.500 364.755 634.850 C 363.515 634.492, 362.009 634.155, 361.410 634.100 C 360.667 634.032, 360.111 641.666, 359.663 658.067 M 369.078 667.397 C 369.170 685.215, 368.928 700.307, 368.541 700.934 C 368.154 701.560, 368.138 703.857, 368.506 706.037 C 369.096 709.529, 369.502 710, 371.920 710 L 374.665 710 374.431 685.250 C 374.302 671.638, 374.152 654.763, 374.098 647.750 L 374 635 371.455 635 L 368.910 635 369.078 667.397 M 298.762 644 C 299.168 645.925, 299.464 651.075, 299.419 655.444 C 299.372 660.025, 299.660 662.565, 300.099 661.444 C 301.397 658.127, 300.994 646.675, 299.467 643.500 L 298.025 640.500 298.762 644 M 444.484 651.811 C 445.129 660.524, 447.635 668.089, 452.874 677.138 C 456.594 683.563, 466.184 697.149, 466.662 696.671 C 467.401 695.933, 460.412 678.621, 457.135 673.073 C 451.562 663.636, 448.983 658.381, 446.303 651 L 443.943 644.500 444.484 651.811 M 281.600 694.287 C 275.243 704.486, 272.494 711.733, 269.963 724.963 C 267.645 737.078, 266.825 759.668, 268.558 763.683 C 269.200 765.170, 269.543 760.232, 269.634 748.183 C 269.822 723.338, 272.043 714.159, 282.064 696.796 C 284.894 691.890, 286.987 687.653, 286.713 687.380 C 286.439 687.106, 284.139 690.214, 281.600 694.287 M 459.643 692.586 C 460.665 694.283, 462.782 697.208, 464.348 699.086 C 467.083 702.365, 467.130 702.381, 465.528 699.500 C 464.611 697.850, 462.494 694.925, 460.824 693 C 457.898 689.628, 457.855 689.613, 459.643 692.586 M 340 710.823 C 340 711.348, 340.868 712.841, 341.929 714.139 C 343.382 715.918, 344.145 716.218, 345.023 715.356 C 347.003 713.411, 345.732 710.529, 342.741 710.184 C 341.234 710.010, 340 710.297, 340 710.823 M 347.465 711.057 C 347.103 711.642, 347.366 713.469, 348.048 715.116 C 348.980 717.365, 349.004 718.396, 348.144 719.256 C 346.174 721.226, 346.841 721.704, 352.362 722.274 C 355.690 722.617, 359.803 724.001, 363.206 725.921 L 368.689 729.015 374.595 725.981 C 377.843 724.312, 382.934 722.663, 385.908 722.315 C 391.402 721.674, 395 719.372, 395 716.500 C 395 715.426, 393.904 715, 391.139 715 C 387.621 715, 387.317 715.210, 387.728 717.359 C 388.230 719.984, 386.194 721.360, 383.909 719.938 C 382.744 719.213, 382.722 718.702, 383.784 716.990 C 385.527 714.178, 384.540 713, 380.441 713 C 376.696 713, 375.977 714.520, 378.750 716.579 C 380.378 717.787, 380.385 717.995, 378.846 719.557 C 376.491 721.948, 374.886 720.451, 375.217 716.170 C 375.475 712.826, 375.256 712.472, 372.744 712.183 C 369.317 711.789, 367.798 714.648, 370.417 716.563 C 371.822 717.590, 371.943 718.238, 371.044 719.918 C 369.716 722.399, 368.689 722.535, 366.965 720.458 C 365.995 719.289, 365.966 718.634, 366.842 717.758 C 367.479 717.121, 368 715.565, 368 714.300 C 368 712.426, 367.460 712, 365.083 712 C 363.479 712, 361.956 712.563, 361.698 713.250 C 361.371 714.124, 360.787 713.924, 359.759 712.588 C 357.663 709.860, 354.463 711.128, 356.034 714.063 C 357.387 716.592, 356.639 719, 354.500 719 C 352.319 719, 351.444 716.120, 352.911 713.770 C 354.338 711.486, 354.336 711.482, 350.811 710.637 C 349.282 710.270, 347.839 710.451, 347.465 711.057 M 359.336 716.567 C 359.005 717.429, 359.225 718.625, 359.825 719.225 C 361.269 720.669, 364.096 718.414, 363.334 716.427 C 362.602 714.521, 360.087 714.609, 359.336 716.567 M 345.223 723.210 C 346.317 724.857, 348.323 725.687, 353.106 726.470 C 356.634 727.047, 361.229 728.528, 363.317 729.760 C 365.406 730.992, 367.651 731.968, 368.307 731.930 C 368.980 731.890, 368.846 731.563, 368 731.180 C 367.175 730.806, 364.475 729.156, 362 727.512 C 358.444 725.152, 356.396 724.522, 352.238 724.512 C 348.112 724.503, 346.856 724.122, 346.421 722.750 C 346.115 721.788, 345.391 721, 344.811 721 C 344.196 721, 344.368 721.921, 345.223 723.210 M 379.585 725.794 C 374.862 727.433, 371.844 730.177, 373.234 731.567 C 373.916 732.249, 388.752 726.502, 390.450 724.898 C 392.063 723.373, 384.842 723.969, 379.585 725.794 M 483 749.888 C 483 754.382, 478.817 769.496, 476.093 774.848 C 472.193 782.508, 469.989 786.411, 469.012 787.388 C 467.415 788.985, 467.834 790.383, 469.497 789.003 C 472.134 786.814, 478.082 774.749, 480.589 766.500 C 483.006 758.548, 484.877 746, 483.645 746 C 483.290 746, 483 747.750, 483 749.888 M 280.839 790.646 C 282.934 793.713, 290.959 801.003, 298 806.235 C 299.925 807.666, 305.072 810.252, 309.438 811.983 C 318.242 815.472, 341.099 821.330, 343.783 820.786 C 344.727 820.594, 343.250 819.849, 340.500 819.130 C 323.518 814.690, 317.093 812.587, 307.943 808.474 C 296.488 803.326, 293.131 801.111, 284.596 793.065 C 280.396 789.107, 279.311 788.409, 280.839 790.646 M 351.500 822.204 C 357.059 823.818, 401.446 823.817, 405.500 822.204 C 408.070 821.181, 407.283 821.080, 400 821.500 C 387.602 822.214, 368.956 822.263, 357.500 821.612 C 348.875 821.121, 348.050 821.203, 351.500 822.204" stroke="none" fill="#3a3b3b" fill-rule="evenodd"/><path d="M 0 512.001 L 0 1024.003 373.750 1023.751 L 747.500 1023.500 747.751 511.750 L 748.002 0 374.001 0 L 0 0 0 512.001 M 0.496 512.500 C 0.496 794.100, 0.610 909.151, 0.750 768.168 C 0.890 627.186, 0.890 396.786, 0.750 256.168 C 0.610 115.551, 0.496 230.900, 0.496 512.500 M 369 156.932 C 360.724 158.591, 353 164.898, 353 169.995 C 353 171.166, 351.819 174.620, 350.376 177.672 C 348.066 182.552, 347.809 184.119, 348.231 190.705 C 348.541 195.520, 348.317 198.515, 347.606 199.099 C 346.998 199.599, 344.250 201.469, 341.500 203.254 C 336.984 206.186, 336.479 206.887, 336.288 210.500 L 336.076 214.500 337.310 210.536 C 338.318 207.296, 339.589 205.952, 344.272 203.174 L 350 199.776 350 191.358 C 350 184.629, 350.502 181.748, 352.500 177 C 353.875 173.733, 355 170.372, 355 169.530 C 355 168.689, 355.419 168, 355.930 168 C 356.442 168, 357.005 166.994, 357.180 165.765 C 357.618 162.704, 364.282 159.220, 370.462 158.821 L 375.424 158.500 376.066 162.321 C 376.524 165.045, 378.138 167.628, 381.693 171.321 C 385.955 175.749, 389 181.639, 389 185.454 C 389 185.851, 387.143 185.862, 384.873 185.479 C 382.224 185.031, 380.967 185.137, 381.361 185.775 C 381.977 186.771, 390.423 188.523, 392.726 188.132 C 393.400 188.017, 395.312 188.627, 396.976 189.487 C 399.718 190.906, 400 191.509, 400 195.957 C 400 201.931, 405.184 216.762, 408.141 219.250 C 409.285 220.213, 410.913 221, 411.758 221 C 412.603 221, 415.235 222.591, 417.608 224.535 C 420.747 227.107, 422.069 229.015, 422.461 231.535 C 422.758 233.441, 423.256 236.630, 423.568 238.622 C 423.980 241.248, 425.494 243.545, 429.078 246.981 C 433.287 251.018, 434.330 252.813, 436.122 259.109 C 437.279 263.174, 438.288 269.245, 438.363 272.600 C 438.488 278.155, 438.835 279.071, 442.250 282.853 C 445.644 286.611, 446.229 287.695, 445.894 289.604 C 445.836 289.936, 447.589 292.074, 449.789 294.354 C 457.708 302.559, 459.733 310.973, 454.645 314.536 C 451.526 316.721, 451.139 316.384, 451.727 312 C 452.079 309.374, 451.875 308, 451.132 308 C 450.509 308, 450 309.336, 450 310.968 C 450 313.323, 449.080 314.615, 445.550 317.218 C 443.102 319.023, 440.630 321.797, 440.056 323.382 C 439.101 326.019, 438.691 326.219, 435.256 325.731 C 433.190 325.437, 430.712 324.880, 429.750 324.492 C 428.773 324.098, 428 324.232, 428 324.795 C 428 326.026, 433.388 328, 436.746 328 C 438.177 328, 441.080 326.339, 443.737 324 C 448.153 320.113, 451.275 319.018, 452.464 320.941 C 452.784 321.459, 451.027 324.271, 448.560 327.191 C 446.093 330.111, 442.722 334.114, 441.069 336.087 C 438.661 338.959, 436.565 340.109, 430.540 341.859 C 425.295 343.383, 422.553 344.753, 421.486 346.381 C 419.346 349.647, 413.735 351.762, 405.266 352.493 C 398.306 353.094, 397.857 352.998, 393.414 349.941 C 386.006 344.844, 383.339 336.912, 386.494 329.359 C 387.951 325.873, 387.902 325.641, 384.534 320.142 C 380.910 314.224, 379.410 309.079, 378.473 299.350 C 378.163 296.133, 377.509 293.360, 377.019 293.188 C 376.530 293.017, 374.705 291.633, 372.963 290.112 C 370.143 287.650, 369.301 287.423, 365.258 288.037 C 359.412 288.924, 354.843 287.856, 349.940 284.458 C 346.802 282.284, 345.254 281.842, 342.255 282.266 C 337.047 283.003, 331.957 285.185, 334.198 285.721 C 335.131 285.944, 336.789 285.648, 337.882 285.063 C 340.391 283.721, 345.286 283.686, 346.602 285.002 C 347.214 285.614, 347.325 288.248, 346.887 291.752 C 346.492 294.914, 346.113 298.625, 346.044 300 C 345.921 302.484, 345.910 302.481, 344.335 299.500 C 342.057 295.190, 339.960 293.028, 336.520 291.445 C 334.859 290.681, 332.263 289.055, 330.750 287.833 C 328.084 285.677, 327.766 285.650, 320.250 286.941 C 315.988 287.672, 309 288.410, 304.721 288.580 C 298.058 288.845, 296.235 288.533, 292.002 286.407 C 286.846 283.817, 284 280.765, 284 277.826 C 284 276.071, 289.597 270.022, 293.804 267.229 C 295.072 266.387, 297.511 265.739, 299.224 265.787 C 304.020 265.924, 307.760 263.414, 311.520 257.537 C 313.408 254.585, 316.279 251.225, 317.900 250.071 C 319.663 248.816, 321.118 246.673, 321.521 244.736 C 321.892 242.956, 323.542 237.387, 325.188 232.360 C 328.107 223.443, 328.299 223.155, 333.059 220.564 C 335.743 219.104, 338.205 217.477, 338.532 216.949 C 338.858 216.421, 341.011 216.060, 343.317 216.147 C 347.193 216.294, 354.832 213.498, 353.686 212.353 C 353.411 212.078, 351.739 212.601, 349.971 213.515 C 347.907 214.582, 345.621 214.964, 343.582 214.581 C 341.211 214.137, 339.628 214.557, 337.328 216.243 C 335.634 217.484, 330.853 220.042, 326.704 221.926 C 318.631 225.592, 317 227.539, 317 233.504 C 317 236.226, 316.279 237.478, 313.431 239.707 C 308.673 243.430, 306.595 247.375, 308.005 250.009 C 309.538 252.874, 310.260 252.459, 309.529 249.132 C 308.897 246.256, 310.697 243.769, 316.352 239.708 C 317.520 238.869, 318.398 236.652, 318.731 233.696 C 319.089 230.518, 320.063 228.209, 321.766 226.507 C 325.022 223.251, 326.103 223.331, 325.043 226.750 C 318.898 246.565, 318.642 247.171, 315.366 249.670 C 313.558 251.049, 311.790 253.087, 311.437 254.199 C 311.084 255.311, 309.214 257.971, 307.281 260.111 C 304.399 263.300, 303.099 264, 300.055 264 C 297.619 264, 294.815 265.012, 291.899 266.944 C 280.133 274.737, 279.573 281.677, 290.269 287.136 C 293.580 288.826, 293.906 289.307, 292.954 291.086 C 292.299 292.310, 292.132 295.207, 292.532 298.406 C 293.314 304.667, 290.902 310.509, 286.134 313.905 C 281.302 317.346, 281.141 323.958, 285.853 325.453 C 286.873 325.777, 288.561 327.648, 289.604 329.611 C 291.906 333.945, 295.556 336, 300.950 336 C 303.178 336, 305 336.439, 305 336.976 C 305 337.512, 303.447 339.365, 301.549 341.092 C 299.188 343.240, 298.128 345.063, 298.191 346.866 C 298.243 348.315, 297.487 352.511, 296.513 356.192 C 294.542 363.636, 294.976 366.501, 297.955 365.722 C 299.097 365.423, 300.586 365.991, 301.598 367.108 C 302.892 368.538, 304.688 369, 308.955 369 C 312.060 369, 315.140 368.460, 315.800 367.800 C 317.794 365.806, 317.168 363.014, 314.500 362 C 311.457 360.843, 311.446 360.669, 314.188 356.960 C 316.008 354.499, 317.083 354, 320.569 354 C 323.978 354, 325.361 353.392, 327.960 350.750 C 329.719 348.963, 331.762 346.067, 332.500 344.316 C 333.978 340.812, 338.446 338, 342.538 338 C 345.030 338, 345.141 338.208, 344.555 341.750 C 342.914 351.660, 341.857 362.610, 341.441 374 C 341.190 380.875, 340.517 389.425, 339.945 393 C 338.350 402.971, 338.276 431.393, 339.826 439.050 C 342.156 450.565, 340.011 489.491, 336.704 495.700 C 334.438 499.955, 334.586 504.529, 337.166 510 C 338.636 513.118, 339.535 517.725, 340.093 525 C 340.535 530.775, 341.033 536.400, 341.199 537.500 C 341.457 539.213, 340.782 539.584, 336.500 540.082 C 326.905 541.200, 306.834 547.912, 301.949 551.637 C 293.641 557.972, 286.923 570.559, 283.994 585.276 C 282.352 593.525, 280.333 616.092, 281.626 611.750 C 282.402 609.143, 283.872 609.633, 284.632 612.750 C 285 614.263, 286.381 617.883, 287.701 620.795 C 295.496 638, 297.347 644.228, 297.425 653.500 C 297.496 662.056, 297.298 662.920, 293.406 671 C 291.154 675.675, 286.777 683.214, 283.680 687.754 C 280.582 692.293, 277.329 697.398, 276.450 699.097 C 275.571 700.796, 274.650 701.984, 274.404 701.737 C 273.439 700.772, 280.517 682.928, 286.109 672.227 L 292 660.954 292 651.420 C 292 640.691, 290.649 633.866, 287.684 629.615 C 286.577 628.028, 285.090 625.103, 284.380 623.115 C 283.480 620.597, 283.074 620.152, 283.044 621.648 C 283.020 622.830, 284.368 626.397, 286.039 629.575 C 287.711 632.753, 288.871 635.893, 288.617 636.554 C 288.364 637.215, 288.568 638.168, 289.072 638.672 C 290.611 640.211, 291.274 651.179, 290.179 657 C 289.568 660.248, 287.034 666.286, 283.991 671.744 C 278.125 682.266, 272.025 698.749, 272.010 704.120 C 272.005 706.111, 271.157 710.386, 270.127 713.620 C 267.021 723.373, 265.667 733.759, 265.582 748.500 C 265.504 761.831, 265.658 762.962, 268.802 772.158 C 272.134 781.906, 277.030 790.117, 283.850 797.397 C 285.857 799.540, 286.938 800.976, 286.250 800.588 C 285.561 800.199, 285 800.405, 285 801.048 C 285 801.701, 285.697 801.947, 286.584 801.606 C 287.575 801.226, 290.286 802.642, 293.834 805.395 C 300.946 810.913, 305.082 812.946, 317 816.779 C 327.882 820.280, 332.546 821.349, 346.500 823.543 C 376.660 828.284, 395.155 827.543, 419.146 820.633 C 456.295 809.934, 479.193 791.490, 485.449 767.228 C 490.757 746.641, 487.514 728.727, 474.998 709.500 C 472.849 706.200, 469.061 697.777, 466.580 690.781 C 463.957 683.388, 459.564 673.759, 456.087 667.781 C 445.693 649.916, 444.090 639.319, 448.948 620.590 C 451.397 611.151, 451.696 595.205, 449.575 587.236 C 446.721 576.515, 439.410 568.024, 423.710 557.197 C 411.781 548.971, 401.143 544.069, 387.348 540.441 C 384.850 539.784, 381.577 515.126, 380.319 487.500 C 379.181 462.490, 379.750 456.148, 384.101 445.333 C 385.271 442.427, 385.141 441.812, 382.528 437.863 C 379.333 433.034, 378.499 427.510, 377.113 402 C 376.285 386.748, 377.264 359.131, 378.860 352.726 C 379.377 350.650, 379.587 348.136, 379.326 347.139 C 378.741 344.903, 384.116 340.848, 384.829 342.988 C 385.679 345.536, 392.110 351.824, 395.521 353.443 C 397.981 354.611, 400.090 354.881, 402.748 354.369 C 404.811 353.972, 407.400 353.716, 408.500 353.800 C 412.242 354.085, 419.811 350.937, 421.469 348.407 C 423.254 345.683, 426.466 344.089, 435.323 341.533 C 440.315 340.092, 441.599 339.197, 444.323 335.262 C 446.070 332.737, 449.188 328.693, 451.250 326.275 C 453.313 323.857, 455 321.511, 455 321.062 C 455 319.194, 451.922 317.803, 449.265 318.470 C 447.747 318.851, 446.788 318.879, 447.134 318.533 C 447.480 318.186, 449.954 317.362, 452.632 316.701 C 457.130 315.591, 457.601 315.180, 458.835 311.280 C 460.068 307.384, 459.992 306.703, 457.839 302.393 C 456.557 299.825, 453.594 295.783, 451.254 293.409 C 448.914 291.036, 447 288.340, 447 287.418 C 447 286.497, 445.404 283.976, 443.453 281.816 C 440.300 278.326, 439.938 277.366, 440.192 273.172 C 440.350 270.576, 439.693 265.989, 438.734 262.977 C 437.774 259.964, 436.551 255.691, 436.017 253.479 C 435.324 250.607, 434.161 248.935, 431.947 247.628 C 427.690 245.113, 425.222 240.662, 424.427 234.066 C 424.058 231.005, 423.474 227.970, 423.128 227.322 C 422.183 225.550, 414.218 220, 412.619 220 C 409.865 220, 407.237 216.379, 404.635 209 C 403.180 204.875, 401.993 199.399, 401.995 196.832 C 402.001 191.328, 401.264 189, 399.515 189 C 398.817 189, 397.685 188.325, 397 187.500 C 396.315 186.675, 394.887 186, 393.827 186 C 391.874 186, 389 180.863, 389 177.373 C 389 176.442, 386.477 173.036, 383.393 169.803 C 379.255 165.464, 377.926 163.391, 378.319 161.888 C 378.645 160.642, 378.104 159.104, 376.926 157.926 C 374.882 155.882, 374.483 155.832, 369 156.932 M 364.250 169.745 C 362.462 170.635, 361 171.743, 361 172.207 C 361 172.671, 362.460 172.297, 364.244 171.374 C 366.027 170.452, 368.615 169.354, 369.994 168.934 L 372.500 168.172 370 168.150 C 368.625 168.138, 366.038 168.856, 364.250 169.745 M 392.488 221.980 C 392.846 222.560, 395.539 222.704, 399.089 222.333 C 404.669 221.750, 405.281 221.895, 407.927 224.430 C 411.789 228.130, 412.015 235.893, 408.401 240.683 C 405.860 244.052, 405.347 246, 407 246 C 407.550 246, 408 245.380, 408 244.622 C 408 243.865, 408.705 242.660, 409.566 241.945 C 414.560 237.800, 414.565 227.603, 409.574 223.310 C 407.284 221.341, 405.782 221, 399.385 221 C 394.741 221, 392.113 221.373, 392.488 221.980 M 333.607 249.582 C 333.273 250.452, 333 251.990, 333 252.999 C 333 254.119, 331.558 255.550, 329.304 256.668 C 327.272 257.675, 325.454 259.002, 325.266 259.616 C 325.077 260.230, 327.190 259.610, 329.961 258.239 C 332.897 256.786, 335.006 255.068, 335.014 254.123 C 335.021 253.230, 335.299 251.488, 335.630 250.250 C 336.310 247.712, 334.548 247.130, 333.607 249.582 M 430.137 271.037 C 429.018 274.247, 430.101 279, 431.950 279 C 432.604 279, 432.621 278.134, 432 276.500 C 431.394 274.906, 431.403 273.070, 432.025 271.435 C 433.224 268.280, 433.230 268, 432.098 268 C 431.602 268, 430.719 269.367, 430.137 271.037 M 374.388 279.876 C 375.322 280.908, 376.352 283.394, 376.678 285.400 C 377.381 289.736, 379 291.218, 379 287.527 C 379 283.526, 376.330 278, 374.396 278 C 372.791 278, 372.790 278.111, 374.388 279.876 M 321 288.162 C 319.625 288.731, 313.629 289.443, 307.676 289.744 C 294.501 290.409, 293.607 291.004, 294.541 298.478 C 295.314 304.671, 293.288 309.470, 287.588 314.946 C 285.614 316.842, 284 319.151, 284 320.077 C 284 321.004, 285.575 322.964, 287.500 324.432 C 289.425 325.900, 291 327.721, 291 328.478 C 291 331.048, 296.240 334.223, 299.586 333.680 C 301.283 333.404, 303.308 333.583, 304.086 334.077 C 305.102 334.723, 306.245 334.075, 308.149 331.773 C 310.542 328.881, 311.329 328.571, 316.294 328.571 C 319.831 328.571, 323.075 329.264, 325.397 330.514 L 329.004 332.457 332.229 329.233 L 335.453 326.009 333.318 323.873 L 331.182 321.738 329.135 325.619 C 326.821 330.007, 326.409 328.704, 328.210 322.693 C 328.945 320.240, 331.053 317.148, 333.578 314.821 C 340.277 308.646, 343.304 303.660, 342.520 300.089 C 341.887 297.208, 336.962 292, 334.870 292 C 334.333 292, 332.238 290.875, 330.215 289.500 C 326.221 286.786, 324.815 286.582, 321 288.162 M 348.474 291.326 C 348.117 293.705, 347.482 298.992, 347.063 303.076 C 346.397 309.572, 346.204 310.091, 345.522 307.229 L 344.742 303.958 341.783 307.980 C 339.237 311.443, 338.919 312.559, 339.499 315.996 C 339.870 318.193, 340.635 320.275, 341.199 320.623 C 342.511 321.434, 343.965 319.151, 343.985 316.250 C 343.993 315.012, 344.508 314, 345.128 314 C 346.427 314, 345.477 321.920, 344 323.399 C 342.568 324.833, 338.138 321.307, 337.277 318.046 C 336.504 315.118, 336.488 315.112, 334.099 316.920 L 331.697 318.737 334.349 322.213 C 335.807 324.125, 337 326.121, 337 326.648 C 337 327.176, 335.424 329.135, 333.498 331.002 C 331.159 333.269, 330.329 334.729, 330.998 335.398 C 331.549 335.949, 332 337.154, 332 338.075 C 332 339.595, 332.361 339.570, 335.928 337.806 C 338.150 336.706, 341.298 336.001, 343.178 336.181 C 346.260 336.477, 346.496 336.752, 346.442 340 C 346.410 341.925, 345.822 347.550, 345.136 352.500 C 344.450 357.450, 343.466 368.250, 342.949 376.500 C 342.433 384.750, 341.420 398.327, 340.700 406.671 C 339.309 422.782, 339.910 435.981, 342.157 438.690 C 344.992 442.106, 342.427 487.985, 338.964 495.815 C 336.437 501.526, 336.487 502.842, 339.500 510 C 341.322 514.328, 342.006 517.779, 342.024 522.720 C 342.037 526.449, 342.431 531.151, 342.900 533.170 C 343.370 535.188, 343.531 538.001, 343.260 539.420 C 342.823 541.704, 342.287 542, 338.578 542 C 336.274 542, 331.264 543.092, 327.445 544.426 L 320.500 546.851 325.816 546.926 C 328.739 546.967, 331.889 546.611, 332.816 546.136 C 335.821 544.594, 343 544.069, 343 545.392 C 343 546.863, 331.241 549, 323.141 549 C 315.535 549, 307.294 553.046, 300.500 560.116 L 295.500 565.319 301.500 560.507 C 310.261 553.480, 315.742 551.324, 328 550.081 C 333.775 549.495, 339.625 548.757, 341 548.439 C 343.170 547.939, 343.263 548.013, 341.706 549.005 C 340.720 549.634, 334.546 550.775, 327.988 551.541 C 313.658 553.215, 308.240 555.600, 299.964 563.876 C 295.820 568.020, 293.836 570.979, 292.498 575.010 C 291.495 578.029, 289.623 582.480, 288.338 584.899 C 283.938 593.179, 285.457 607.331, 292.336 622.139 C 294.217 626.188, 296.090 630.625, 296.498 632 C 296.907 633.375, 298.312 637.074, 299.621 640.220 C 304.304 651.479, 302.136 667.571, 294.327 679.500 C 286.401 691.609, 277.113 709.191, 274.254 717.500 C 271.585 725.254, 271.501 726.146, 271.533 746.500 C 271.570 770.627, 272.370 774.163, 280.487 786.068 C 286.045 794.222, 290.306 797.685, 302.471 803.935 C 313.570 809.637, 323.134 812.942, 338.500 816.384 C 354.843 820.046, 365.310 820.856, 385 819.984 C 408.095 818.961, 410.267 818.605, 425.588 813.338 C 438.644 808.849, 446.837 804.478, 460.520 794.701 C 469.711 788.134, 469.835 789.401, 460.668 796.214 C 450.009 804.135, 442.652 808.482, 433 812.558 C 428.325 814.532, 425.912 815.911, 427.639 815.621 C 432.190 814.858, 453.304 804.366, 459.340 799.870 C 465.446 795.321, 475.951 783.344, 479.399 777 C 483.245 769.924, 485.281 757.711, 484.789 744.676 C 484.497 736.943, 483.845 732.422, 482.673 730 C 481.491 727.558, 481.153 727.256, 481.554 729 C 481.870 730.375, 482.302 734.650, 482.514 738.500 L 482.899 745.500 482.007 739.500 C 480.001 725.987, 475.486 717.068, 460.495 697 C 453.831 688.079, 444.361 671.886, 442.657 666.500 C 440.254 658.899, 438.675 644.373, 439.365 636.207 C 439.705 632.188, 440.964 625.210, 442.162 620.700 C 444.807 610.748, 445.005 593.969, 442.576 585.615 C 440.501 578.474, 434.356 571.036, 426.364 565.989 C 415.738 559.278, 400.620 552.317, 392.525 550.408 C 385.065 548.650, 385 548.606, 385 545.382 C 385 543.594, 384.554 540.956, 384.008 539.521 C 382.155 534.647, 379.953 514.577, 378.477 489.112 C 376.889 461.704, 377.292 455.114, 381.086 446.539 C 383.157 441.856, 383.159 441.797, 381.229 439.658 C 377.285 435.284, 375.958 428.413, 375.212 408.500 C 374.522 390.089, 375.166 362.390, 376.551 350.864 C 377.145 345.921, 376.966 344.966, 375.092 343.092 C 373.241 341.241, 373.167 340.873, 374.545 340.345 C 375.419 340.009, 376.644 340.244, 377.267 340.867 C 378.903 342.503, 381.687 342.259, 382.393 340.418 C 383.600 337.273, 382.934 335.998, 379.250 334.402 C 377.188 333.508, 376.038 332.573, 376.695 332.324 C 377.352 332.074, 378.853 332.386, 380.030 333.016 C 382.551 334.365, 382.379 334.493, 384.303 329.849 C 385.658 326.577, 385.654 325.902, 384.266 323.349 C 383.414 321.782, 381.679 318.475, 380.411 316 L 378.105 311.500 377.912 320.500 C 377.730 328.962, 377.676 329.171, 377.006 324 C 376.615 320.975, 376.513 315.301, 376.781 311.392 C 377.103 306.678, 376.885 304.047, 376.131 303.581 C 375.424 303.144, 375.222 301.465, 375.595 299.129 C 376.135 295.756, 375.845 295.071, 372.719 292.327 C 369.705 289.680, 368.730 289.358, 365.372 289.900 L 361.500 290.524 360.918 296.512 C 360.420 301.637, 360.297 301.923, 360.062 298.500 C 359.911 296.300, 359.723 293.669, 359.644 292.654 C 359.547 291.415, 357.857 290.183, 354.500 288.905 C 351.750 287.858, 349.415 287.001, 349.311 287.001 C 349.207 287, 348.831 288.947, 348.474 291.326 M 438 289.623 C 438 290.135, 438.706 291.564, 439.570 292.796 C 441.019 294.865, 440.981 295.295, 439.070 298.387 C 436.813 302.038, 436.439 304, 438 304 C 438.550 304, 439 303.386, 439 302.635 C 439 301.884, 439.931 300.086, 441.069 298.640 C 442.311 297.060, 442.900 295.261, 442.543 294.137 C 441.874 292.028, 438 288.179, 438 289.623 M 385.820 295.578 C 388.538 297.904, 390 299.982, 390 301.519 C 390 303.825, 391.224 305.443, 392.217 304.449 C 394.356 302.310, 386.960 292, 383.287 292 C 382.230 292, 383.137 293.282, 385.820 295.578 M 298.524 302.524 C 296.899 306.978, 294.974 310.479, 293.804 311.105 C 292.718 311.686, 292.078 312.412, 292.383 312.716 C 293.130 313.463, 298 310.212, 298 308.966 C 298 308.423, 298.864 306.071, 299.919 303.739 C 302.544 297.942, 303.312 295, 302.201 295 C 301.688 295, 300.033 298.386, 298.524 302.524 M 368 315.876 C 368 319.173, 368.463 323.088, 369.029 324.576 C 369.805 326.618, 369.673 328.291, 368.491 331.391 C 367.303 334.505, 367.151 336.469, 367.861 339.500 L 368.799 343.500 368.900 338.700 C 368.955 336.061, 369.701 332.544, 370.558 330.887 C 371.980 328.137, 371.969 327.485, 370.428 323.451 C 369.298 320.491, 368.949 317.723, 369.372 315.075 C 369.737 312.795, 369.580 310.858, 369.002 310.501 C 368.375 310.114, 368 312.126, 368 315.876 M 393.458 319.049 C 391.446 322.264, 389 327.491, 389 328.575 C 389 329.209, 390.026 330.801, 391.279 332.114 C 392.532 333.426, 394.789 336.413, 396.293 338.750 C 397.798 341.087, 399.472 343, 400.014 343 C 401.644 343, 401.193 342.066, 396.707 336.156 C 390.612 328.128, 390.717 328.475, 393.021 323.960 C 395.042 319.997, 395.404 315.941, 393.458 319.049 M 310.635 332.073 C 309.186 333.212, 308 334.772, 308 335.539 C 308 336.306, 306.349 338.584, 304.331 340.602 C 302.313 342.620, 300.540 345.448, 300.391 346.885 C 300.241 348.323, 299.221 352.538, 298.123 356.250 C 297.025 359.962, 296.211 363.034, 296.313 363.077 C 296.416 363.119, 297.276 363.302, 298.225 363.484 C 299.174 363.667, 301.147 364.757, 302.610 365.908 C 305.285 368.012, 308.581 368.487, 312.750 367.370 C 315.575 366.613, 315.673 364.348, 312.919 363.474 C 311.052 362.882, 310.907 362.309, 311.513 357.907 C 312.376 351.630, 310.060 351.074, 307.732 357 C 306.868 359.200, 305.637 361, 304.997 361 C 304.357 361, 303.999 360.663, 304.201 360.250 C 304.404 359.837, 305.390 357.587, 306.393 355.250 C 307.557 352.539, 308.858 351, 309.986 351 C 310.959 351, 312.315 350.325, 313 349.500 C 313.685 348.675, 315.652 348.041, 317.372 348.090 L 320.500 348.180 317.250 349.119 C 315.438 349.642, 314 350.723, 314 351.563 C 314 353.966, 323.867 352.378, 326.871 349.492 C 330.289 346.206, 330.737 338.419, 327.695 335.161 C 322.651 329.759, 315.274 328.423, 310.635 332.073 M 351 354.290 C 351 356.715, 350.775 362.254, 350.500 366.599 C 350.113 372.715, 350.227 373.822, 351.005 371.500 C 352.639 366.625, 353.465 351.405, 352.139 350.586 C 351.353 350.100, 351 351.246, 351 354.290 M 363.659 365.750 C 363.304 372.212, 362.729 381.775, 362.381 387 C 361.949 393.487, 362.073 396.183, 362.774 395.500 C 363.770 394.529, 365.718 354, 364.769 354 C 364.514 354, 364.015 359.288, 363.659 365.750 M 344.726 383.683 C 343.663 385.515, 342.876 403, 343.856 403 C 344.441 403, 344.996 398.914, 345.181 393.250 C 345.517 382.994, 345.487 382.373, 344.726 383.683 M 351.102 419.500 C 350.962 427.142, 350.566 429.104, 348.474 432.500 C 345.559 437.232, 345.413 439.174, 347.705 442.673 C 349.089 444.786, 349.362 447.270, 349.157 455.887 C 348.988 462.955, 349.458 469.006, 350.562 474 C 351.832 479.744, 352.288 487.938, 352.511 509 C 352.671 524.125, 353.110 537.693, 353.485 539.151 C 353.860 540.609, 353.693 545.109, 353.114 549.151 C 352.535 553.193, 351.963 565.050, 351.842 575.500 C 351.614 595.313, 351.089 599.375, 348.423 601.953 C 346.957 603.370, 346.870 602.363, 347.396 590 C 348.679 559.823, 349.165 537.537, 348.527 538.158 C 348.155 538.520, 347.652 546.845, 347.409 556.658 C 347.166 566.471, 346.516 583.725, 345.966 595 C 345.416 606.275, 344.755 626.895, 344.497 640.823 C 344.239 654.751, 343.765 666.571, 343.444 667.091 C 343.123 667.611, 343.421 676.839, 344.108 687.599 C 345.471 708.982, 345.477 708.952, 339.872 708.985 C 338.427 708.993, 336.669 709.693, 335.966 710.541 C 334.892 711.835, 335.176 712.597, 337.736 715.291 C 339.413 717.056, 341.708 720.345, 342.836 722.600 C 344.867 726.660, 344.954 726.707, 351.582 727.325 C 355.263 727.669, 359.451 728.721, 360.888 729.663 C 366.594 733.405, 368.310 733.987, 369.861 732.709 C 371.125 731.666, 371.237 732.120, 370.676 736 C 370.037 740.411, 370.054 740.446, 371.523 737.790 C 372.502 736.021, 375.609 733.853, 380.482 731.540 C 384.586 729.593, 388.427 728, 389.019 728 C 389.611 728, 391.199 726.809, 392.548 725.354 C 394.711 723.020, 395.008 722.931, 395.070 724.604 C 395.109 725.647, 395.793 724.720, 396.589 722.544 C 397.386 720.369, 398.929 717.640, 400.019 716.480 C 401.108 715.320, 402 714.142, 402 713.863 C 402 713.583, 399.098 713.387, 395.550 713.427 C 392.003 713.467, 388.664 713.050, 388.131 712.500 C 387.160 711.499, 384.515 650.594, 385.381 649.192 C 385.634 648.784, 385.516 644.677, 385.120 640.067 C 384.422 631.944, 384.481 631.597, 387.028 628.808 C 395.108 619.961, 394.569 600.103, 386.116 595.252 L 383.157 593.553 382.765 565.027 C 382.404 538.707, 382.205 536.043, 380.187 530.593 C 378.984 527.345, 377.970 523.745, 377.932 522.593 L 377.865 520.500 376.852 522.588 C 376.071 524.198, 376.430 526.082, 378.419 530.808 C 380.983 536.898, 381 537.125, 381 564.470 L 381 592 378.555 592 L 376.110 592 376.190 573.250 C 376.234 562.938, 375.786 550.225, 375.194 545 L 374.118 535.500 374.806 548 C 375.560 561.689, 375.390 582.625, 374.484 587.750 C 374.019 590.378, 373.440 591, 371.455 591 C 369.065 591, 369 590.800, 369 583.435 C 369 579.274, 369.659 567.461, 370.465 557.185 C 371.474 544.319, 371.652 536.164, 371.037 531 L 370.145 523.500 370.415 531 C 370.564 535.125, 370.275 543.225, 369.774 549 C 369.273 554.775, 368.556 566.470, 368.181 574.989 L 367.500 590.478 364.674 591.830 C 363.120 592.574, 361.582 592.915, 361.256 592.589 C 360.930 592.264, 361.456 580.185, 362.425 565.749 C 364.773 530.746, 364.764 530.407, 361.376 526.870 L 358.628 524.003 360.383 520.324 C 361.919 517.101, 362.108 513.830, 361.906 493.931 C 361.685 472.224, 361.770 471.055, 363.837 467.551 C 366.217 463.518, 366.549 459.874, 364.954 455.298 C 364.233 453.230, 364.226 450.328, 364.929 445.958 C 365.970 439.498, 365.730 437.870, 363.995 439.605 C 362.738 440.862, 362.359 454.375, 363.442 459.299 C 364.123 462.396, 363.825 464.058, 361.824 468.299 C 359.388 473.463, 359.375 473.644, 360.048 494 C 360.714 514.195, 360.689 514.572, 358.360 519.347 L 355.995 524.193 358.920 526.926 C 362.024 529.825, 363.688 535.444, 362.574 539.262 C 362.214 540.493, 361.496 549.375, 360.978 559 C 359.112 593.665, 359.153 593.375, 355.720 595.346 L 352.698 597.080 353.470 574.290 C 354.472 544.745, 354.689 514.177, 353.954 506.135 C 353.634 502.635, 353.756 496.905, 354.226 493.402 C 354.872 488.576, 354.672 485.153, 353.397 479.267 C 352.473 474.995, 351.442 465.108, 351.108 457.296 C 350.710 447.999, 350.068 442.661, 349.250 441.846 C 347.391 439.993, 347.718 437.279, 350.484 431.600 C 352.788 426.869, 352.906 425.921, 352.117 418.500 L 351.266 410.500 351.102 419.500 M 367.742 478.219 C 367.450 480.024, 367.601 485.100, 368.077 489.500 C 368.553 493.900, 369.241 501.100, 369.605 505.500 C 369.970 509.900, 370.644 514.175, 371.104 515 C 372.469 517.451, 372.148 507.342, 370.513 496.406 C 369.695 490.936, 369.079 484.091, 369.144 481.195 C 369.282 475.091, 368.511 473.456, 367.742 478.219 M 346.546 488.328 C 346.907 489.767, 346.152 492.795, 344.565 496.264 C 341.485 502.998, 341.438 503.978, 343.959 508.919 C 346.487 513.874, 347.844 522.794, 347.320 531 C 346.998 536.037, 347.154 537.101, 348.014 535.729 C 348.624 534.755, 349.545 534.219, 350.061 534.538 C 350.959 535.093, 351.509 531.751, 351.221 527.500 C 351.146 526.400, 350.861 519.033, 350.588 511.129 C 350.315 503.225, 349.846 496.512, 349.545 496.212 C 349.245 495.912, 348.970 500.354, 348.933 506.083 C 348.870 515.953, 348.800 516.290, 347.608 512.500 C 346.915 510.300, 345.778 507.438, 345.081 506.140 C 344.025 504.176, 344.093 503.044, 345.489 499.390 C 346.411 496.976, 347.578 495, 348.083 495 C 348.587 495, 349 492.975, 349 490.500 C 349 487.142, 348.615 486, 347.481 486 C 346.390 486, 346.127 486.656, 346.546 488.328 M 374.172 510.250 C 374.189 512.038, 373.958 517.550, 373.659 522.500 L 373.116 531.500 373.987 523.318 C 374.465 518.818, 375.355 514.205, 375.964 513.068 C 376.755 511.589, 376.766 510.430, 376 509 C 374.516 506.226, 374.137 506.485, 374.172 510.250 M 386.500 542.999 C 385.707 544.284, 387.042 544.827, 395.139 546.516 C 399.188 547.361, 403.400 548.281, 404.500 548.562 C 405.887 548.916, 405.701 548.615, 403.894 547.580 C 400.098 545.405, 387.125 541.989, 386.500 542.999 M 306.500 550.903 C 301.191 553.966, 298.401 556.638, 295.435 561.500 C 294.253 563.438, 295.145 562.791, 297.957 559.672 C 300.350 557.016, 304.714 553.486, 307.654 551.826 C 310.594 550.167, 313 548.627, 313 548.405 C 313 547.492, 311.241 548.168, 306.500 550.903 M 412.500 556.226 C 440.847 571.285, 446.146 578.460, 446.301 602 C 446.352 609.702, 445.790 614.765, 444.192 621 C 442.994 625.675, 442.045 631.750, 442.083 634.500 C 442.145 638.965, 442.411 638.323, 444.570 628.500 C 452.438 592.696, 449.332 579.192, 429.868 564.560 C 423.854 560.039, 409.818 552.677, 405 551.516 C 403.625 551.185, 407 553.304, 412.500 556.226 M 290.047 573.750 C 288.132 577.884, 286.030 584, 286.524 584 C 287.224 584, 290.656 576.751, 291.377 573.750 C 291.741 572.237, 291.877 571, 291.680 571 C 291.482 571, 290.748 572.237, 290.047 573.750 M 369.860 596.750 C 369.783 597.163, 369.670 604.812, 369.610 613.749 C 369.500 629.966, 369.505 629.998, 371.750 629.999 C 373.995 630, 374 629.963, 374 613 C 374 596.667, 373.922 596, 372 596 C 370.900 596, 369.937 596.337, 369.860 596.750 M 361.250 597.662 C 360.329 598.034, 360 602.079, 360 613.048 C 360 626.738, 360.155 628.013, 361.934 628.965 C 362.998 629.534, 364.798 630, 365.934 630 C 367.889 630, 368 629.443, 368 619.647 C 368 613.952, 367.711 606.527, 367.358 603.147 C 366.791 597.729, 366.465 597.009, 364.608 597.079 C 363.448 597.122, 361.938 597.385, 361.250 597.662 M 375.604 612.521 C 375.661 621.057, 375.941 628.274, 376.225 628.558 C 376.509 628.842, 377.925 628.536, 379.371 627.877 L 382 626.679 382 613.039 C 382 598.762, 381.511 597, 377.550 597 C 375.567 597, 375.503 597.506, 375.604 612.521 M 383.109 605.528 C 383.168 609.362, 383.533 615.200, 383.919 618.500 C 384.614 624.450, 384.631 624.475, 385.884 621.500 C 389.327 613.326, 388.985 604.540, 385.071 600.627 L 383 598.556 383.109 605.528 M 354.441 601.418 C 352.791 602.623, 352.449 604.326, 352.161 612.775 C 351.826 622.594, 351.855 622.740, 354.563 624.871 C 356.071 626.057, 357.517 626.817, 357.775 626.558 C 358.033 626.300, 358.378 620.219, 358.541 613.044 C 358.854 599.290, 358.547 598.419, 354.441 601.418 M 389.994 604.315 C 392.105 610.224, 390.706 618.207, 386.463 624.459 C 384.320 627.618, 384.213 628.106, 385.727 627.814 C 390.054 626.982, 393.819 607.727, 390.494 603.441 C 389.090 601.631, 389.056 601.689, 389.994 604.315 M 291.128 624 C 291.107 624.825, 292.175 627.525, 293.500 630 C 294.825 632.475, 295.902 634.050, 295.893 633.500 C 295.866 631.782, 291.169 622.417, 291.128 624 M 346.509 624.973 C 346.129 626.169, 345.787 644.869, 345.749 666.529 C 345.695 697.819, 345.953 706.238, 347.005 707.506 C 348.622 709.454, 353.635 709.130, 353.202 707.105 C 352.010 701.532, 349.582 662.733, 349.352 645.586 C 349.091 626.092, 348.201 619.641, 346.509 624.973 M 352 626.348 C 352 627.898, 353.561 629.355, 356.250 630.313 C 358.976 631.285, 358.311 629.606, 355 627.158 C 352.805 625.535, 352 625.318, 352 626.348 M 350.671 639.250 C 350.096 647.761, 351.786 679.371, 353.912 699.873 C 354.777 708.214, 355.847 710.288, 359 709.734 C 360.239 709.517, 360.438 707.828, 360.141 700.013 C 359.943 694.811, 359.381 689.501, 358.891 688.213 C 358.401 686.924, 358 673.986, 358 659.461 L 358 633.051 355.050 631.526 C 353.427 630.687, 351.919 630, 351.698 630 C 351.477 630, 351.015 634.163, 350.671 639.250 M 378.150 633.072 L 375.799 634.010 376.150 671.455 C 376.367 694.635, 376.881 709.268, 377.500 709.864 C 378.050 710.394, 379.850 710.979, 381.500 711.164 L 384.500 711.500 384.204 694 C 383.589 657.706, 382.490 632.660, 381.500 632.398 C 380.950 632.253, 379.442 632.556, 378.150 633.072 M 359.663 658.067 C 359.273 672.338, 359.393 683.837, 359.959 686.317 C 360.484 688.618, 361.199 694.888, 361.550 700.250 C 362.167 709.706, 362.259 710, 364.593 710 C 367.484 710, 367.348 712.290, 367.149 667 L 367.011 635.500 364.755 634.850 C 363.515 634.492, 362.009 634.155, 361.410 634.100 C 360.667 634.032, 360.111 641.666, 359.663 658.067 M 369.078 667.397 C 369.170 685.215, 368.928 700.307, 368.541 700.934 C 368.154 701.560, 368.138 703.857, 368.506 706.037 C 369.096 709.529, 369.502 710, 371.920 710 L 374.665 710 374.431 685.250 C 374.302 671.638, 374.152 654.763, 374.098 647.750 L 374 635 371.455 635 L 368.910 635 369.078 667.397 M 298.762 644 C 299.168 645.925, 299.464 651.075, 299.419 655.444 C 299.372 660.025, 299.660 662.565, 300.099 661.444 C 301.397 658.127, 300.994 646.675, 299.467 643.500 L 298.025 640.500 298.762 644 M 444.484 651.811 C 445.129 660.524, 447.635 668.089, 452.874 677.138 C 456.594 683.563, 466.184 697.149, 466.662 696.671 C 467.401 695.933, 460.412 678.621, 457.135 673.073 C 451.562 663.636, 448.983 658.381, 446.303 651 L 443.943 644.500 444.484 651.811 M 281.600 694.287 C 275.243 704.486, 272.494 711.733, 269.963 724.963 C 267.645 737.078, 266.825 759.668, 268.558 763.683 C 269.200 765.170, 269.543 760.232, 269.634 748.183 C 269.822 723.338, 272.043 714.159, 282.064 696.796 C 284.894 691.890, 286.987 687.653, 286.713 687.380 C 286.439 687.106, 284.139 690.214, 281.600 694.287 M 459.643 692.586 C 460.665 694.283, 462.782 697.208, 464.348 699.086 C 467.083 702.365, 467.130 702.381, 465.528 699.500 C 464.611 697.850, 462.494 694.925, 460.824 693 C 457.898 689.628, 457.855 689.613, 459.643 692.586 M 340 710.823 C 340 711.348, 340.868 712.841, 341.929 714.139 C 343.382 715.918, 344.145 716.218, 345.023 715.356 C 347.003 713.411, 345.732 710.529, 342.741 710.184 C 341.234 710.010, 340 710.297, 340 710.823 M 347.465 711.057 C 347.103 711.642, 347.366 713.469, 348.048 715.116 C 348.980 717.365, 349.004 718.396, 348.144 719.256 C 346.174 721.226, 346.841 721.704, 352.362 722.274 C 355.690 722.617, 359.803 724.001, 363.206 725.921 L 368.689 729.015 374.595 725.981 C 377.843 724.312, 382.934 722.663, 385.908 722.315 C 391.402 721.674, 395 719.372, 395 716.500 C 395 715.426, 393.904 715, 391.139 715 C 387.621 715, 387.317 715.210, 387.728 717.359 C 388.230 719.984, 386.194 721.360, 383.909 719.938 C 382.744 719.213, 382.722 718.702, 383.784 716.990 C 385.527 714.178, 384.540 713, 380.441 713 C 376.696 713, 375.977 714.520, 378.750 716.579 C 380.378 717.787, 380.385 717.995, 378.846 719.557 C 376.491 721.948, 374.886 720.451, 375.217 716.170 C 375.475 712.826, 375.256 712.472, 372.744 712.183 C 369.317 711.789, 367.798 714.648, 370.417 716.563 C 371.822 717.590, 371.943 718.238, 371.044 719.918 C 369.716 722.399, 368.689 722.535, 366.965 720.458 C 365.995 719.289, 365.966 718.634, 366.842 717.758 C 367.479 717.121, 368 715.565, 368 714.300 C 368 712.426, 367.460 712, 365.083 712 C 363.479 712, 361.956 712.563, 361.698 713.250 C 361.371 714.124, 360.787 713.924, 359.759 712.588 C 357.663 709.860, 354.463 711.128, 356.034 714.063 C 357.387 716.592, 356.639 719, 354.500 719 C 352.319 719, 351.444 716.120, 352.911 713.770 C 354.338 711.486, 354.336 711.482, 350.811 710.637 C 349.282 710.270, 347.839 710.451, 347.465 711.057 M 359.336 716.567 C 359.005 717.429, 359.225 718.625, 359.825 719.225 C 361.269 720.669, 364.096 718.414, 363.334 716.427 C 362.602 714.521, 360.087 714.609, 359.336 716.567 M 345.223 723.210 C 346.317 724.857, 348.323 725.687, 353.106 726.470 C 356.634 727.047, 361.229 728.528, 363.317 729.760 C 365.406 730.992, 367.651 731.968, 368.307 731.930 C 368.980 731.890, 368.846 731.563, 368 731.180 C 367.175 730.806, 364.475 729.156, 362 727.512 C 358.444 725.152, 356.396 724.522, 352.238 724.512 C 348.112 724.503, 346.856 724.122, 346.421 722.750 C 346.115 721.788, 345.391 721, 344.811 721 C 344.196 721, 344.368 721.921, 345.223 723.210 M 379.585 725.794 C 374.862 727.433, 371.844 730.177, 373.234 731.567 C 373.916 732.249, 388.752 726.502, 390.450 724.898 C 392.063 723.373, 384.842 723.969, 379.585 725.794 M 483 749.888 C 483 754.382, 478.817 769.496, 476.093 774.848 C 472.193 782.508, 469.989 786.411, 469.012 787.388 C 467.415 788.985, 467.834 790.383, 469.497 789.003 C 472.134 786.814, 478.082 774.749, 480.589 766.500 C 483.006 758.548, 484.877 746, 483.645 746 C 483.290 746, 483 747.750, 483 749.888 M 280.839 790.646 C 282.934 793.713, 290.959 801.003, 298 806.235 C 299.925 807.666, 305.072 810.252, 309.438 811.983 C 318.242 815.472, 341.099 821.330, 343.783 820.786 C 344.727 820.594, 343.250 819.849, 340.500 819.130 C 323.518 814.690, 317.093 812.587, 307.943 808.474 C 296.488 803.326, 293.131 801.111, 284.596 793.065 C 280.396 789.107, 279.311 788.409, 280.839 790.646 M 351.500 822.204 C 357.059 823.818, 401.446 823.817, 405.500 822.204 C 408.070 821.181, 407.283 821.080, 400 821.500 C 387.602 822.214, 368.956 822.263, 357.500 821.612 C 348.875 821.121, 348.050 821.203, 351.500 822.204" stroke="none" fill="#fbfbfb" fill-rule="evenodd"/></svg>